<?xml version="1.0" encoding="UTF-8"?>
<svg version="1.1" xmlns="http://www.w3.org/2000/svg" width="128" height="113">
<path d="M0 0 C2.375 0.75 2.375 0.75 3.375 1.75 C3.63464103 5.4085385 3.56471146 9.08339127 3.5625 12.75 C3.56314453 13.82894531 3.56378906 14.90789063 3.56445312 16.01953125 C3.50555254 25.04738423 2.73199087 33.8326314 1.375 42.75 C2.18904297 42.316875 2.18904297 42.316875 3.01953125 41.875 C3.73496094 41.50375 4.45039062 41.1325 5.1875 40.75 C5.89519531 40.37875 6.60289063 40.0075 7.33203125 39.625 C9.375 38.75 9.375 38.75 12.375 38.75 C12.375 39.74 12.375 40.73 12.375 41.75 C11.60921631 42.03955566 10.84343262 42.32911133 10.05444336 42.62744141 C3.96029284 45.26446005 3.96029284 45.26446005 0.15673828 50.42480469 C-0.47405359 53.66902626 -0.81881568 56.82913425 -1.0625 60.125 C-1.32950457 62.4680383 -1.60163178 64.81049858 -1.87890625 67.15234375 C-2.00023926 68.28526855 -2.12157227 69.41819336 -2.24658203 70.58544922 C-3.93940999 84.74185953 -8.26221223 98.43719972 -19.625 107.75 C-22.83360529 109.35430264 -26.1440457 109.23105318 -29.625 108.75 C-33.71742434 106.34792484 -35.15956065 104.17191523 -36.625 99.75 C-38.49545905 86.36145099 -32.73775589 75.16089999 -24.9453125 64.69140625 C-17.33644211 55.04581803 -17.33644211 55.04581803 -12.13305664 52.55908203 C-8.41094916 50.69470529 -5.38851764 48.89699097 -3.93374634 44.80621338 C-2.63733 38.94927123 -2.35436585 32.97283109 -2 27 C-1.85710813 25.17804763 -1.71001143 23.35641988 -1.55859375 21.53515625 C-0.86705138 13.15286334 -0.86705138 13.15286334 -0.625 4.75 C-4.43597876 10.51063804 -7.49596184 16.44406314 -10.2109375 22.77734375 C-10.51968811 23.49685211 -10.82843872 24.21636047 -11.14654541 24.95767212 C-12.42254757 27.94837157 -13.68891077 30.94290067 -14.94238281 33.94311523 C-24.40766848 56.51285793 -24.40766848 56.51285793 -31.70849609 61.04272461 C-34.43270953 62.04808083 -35.88917749 61.6841833 -38.625 60.75 C-43.0539504 57.96903115 -44.32648248 55.74390766 -45.625 50.75 C-45.82156148 48.01106872 -45.92922114 45.37740697 -45.92578125 42.640625 C-45.93006638 41.8737738 -45.9343515 41.10692261 -45.93876648 40.3168335 C-45.94448616 38.69983909 -45.94502753 37.08281897 -45.94067383 35.46582031 C-45.93752706 33.02102507 -45.96095545 30.57745734 -45.98632812 28.1328125 C-46.01813175 19.90669402 -45.84967073 12.47554485 -42.625 4.75 C-41.965 4.75 -41.305 4.75 -40.625 4.75 C-39.0998797 7.80024059 -39.76062128 10.87071298 -40 14.1875 C-40.09783804 15.72915514 -40.19548711 17.27082228 -40.29296875 18.8125 C-40.45686876 21.29229224 -40.62655634 23.77136319 -40.80712891 26.25 C-42.46818321 41.60338519 -42.46818321 41.60338519 -37.625 55.75 C-35.25608504 56.50191978 -35.25608504 56.50191978 -32.625 55.75 C-24.16715842 47.94276162 -20.42141703 35.0084851 -16.02587891 24.63305664 C-5.31808697 -0.50648447 -5.31808697 -0.50648447 0 0 Z M-17.625 60.75 C-26.13633958 69.5886988 -34.06088341 80.00619292 -34.875 92.625 C-34.7919332 96.66506707 -34.11704868 99.45406465 -31.625 102.75 C-28.36942825 104.26346423 -28.36942825 104.26346423 -24.625 103.75 C-17.5440779 100.32473833 -14.33692631 92.69881988 -11.625 85.75 C-8.04426024 74.62035642 -6.6463867 63.36155405 -5.625 51.75 C-9.5480381 51.75 -14.76444929 58.10117073 -17.625 60.75 Z " fill="#7F7F7F" transform="translate(45.625,2.25)"/>
<path d="M0 0 C0.33 0 0.66 0 1 0 C0.39846938 7.33336593 -0.45162295 14.5932744 -1.5 21.875 C-3.77434023 38.33213138 -4.12613989 54.39804955 -4 71 C-3.61328125 69.9378125 -3.2265625 68.875625 -2.828125 67.78125 C-0.21130213 60.65945298 2.37832439 53.68617035 6 47 C6.99 47.33 7.98 47.66 9 48 C8.97643433 48.91495239 8.97643433 48.91495239 8.95239258 49.84838867 C8.88980187 52.6279971 8.85093378 55.40745692 8.8125 58.1875 C8.78736328 59.14720703 8.76222656 60.10691406 8.73632812 61.09570312 C8.57702349 68.08451534 8.57702349 68.08451534 12 74 C14.91318914 74.83399875 14.91318914 74.83399875 18 74 C22.03104165 70.85382115 24.39844783 66.95908705 26.88671875 62.57421875 C27.25410156 62.05472656 27.62148437 61.53523438 28 61 C28.66 61 29.32 61 30 61 C28.96763886 67.87011756 25.22520177 73.47409529 20.6875 78.625 C16.92111389 80.55198824 13.11687529 81.185719 9 80 C5.23009539 76.38410571 4.36862021 73.29111676 3.75 68.1875 C3.60046875 67.02605469 3.4509375 65.86460938 3.296875 64.66796875 C3.19890625 63.78753906 3.1009375 62.90710938 3 62 C1.84152321 64.66177435 0.69821065 67.32852406 -0.4375 70 C-0.76298828 70.74378906 -1.08847656 71.48757812 -1.42382812 72.25390625 C-3.52341814 77.23231557 -4.5651668 81.61051808 -5 87 C-6.32 87 -7.64 87 -9 87 C-9.97299156 82.14270355 -10.12038805 77.5499375 -10.0625 72.625 C-10.05798828 71.88894531 -10.05347656 71.15289062 -10.04882812 70.39453125 C-10.03715142 68.59631842 -10.01922011 66.79814803 -10 65 C-13.81380169 67.58129261 -14.80680868 69.52553256 -16 74 C-17.65 73.67 -19.3 73.34 -21 73 C-21 70.69 -21 68.38 -21 66 C-21.4846875 66.40992187 -21.969375 66.81984375 -22.46875 67.2421875 C-27.23949259 71.07713058 -30.8609592 73.31788436 -37 74 C-41.01342238 72.88150524 -43.23152232 71.86453739 -46 68.75 C-47.32007467 65.11979465 -46.91160061 62.71652557 -46 59 C-44 57 -44 57 -41.375 56.875 C-40.59125 56.91625 -39.8075 56.9575 -39 57 C-38.3125 59.3125 -38.3125 59.3125 -38 62 C-39.4375 63.8125 -39.4375 63.8125 -41 65 C-40.34 66.32 -39.68 67.64 -39 69 C-33.6925242 69.50547389 -31.17668141 68.22743563 -27 65 C-26.34 64.34 -25.68 63.68 -25 63 C-25.020625 62.05125 -25.04125 61.1025 -25.0625 60.125 C-24.99230819 56.61540937 -24.33076392 55.52499425 -22 53 C-20.68 53.33 -19.36 53.66 -18 54 C-18 54.99 -18 55.98 -18 57 C-18.66 57 -19.32 57 -20 57 C-19.505 57.94875 -19.01 58.8975 -18.5 59.875 C-17 63 -17 63 -17 65 C-16.21625 64.505 -15.4325 64.01 -14.625 63.5 C-12 62 -12 62 -10 62 C-10.05414063 60.02193359 -10.05414063 60.02193359 -10.109375 58.00390625 C-10.10416249 50.59301611 -9.15943808 43.27996918 -8.25 35.9375 C-8.16107483 35.20788055 -8.07214966 34.47826111 -7.98052979 33.72653198 C-4.37208009 4.37208009 -4.37208009 4.37208009 0 0 Z " fill="#7F7F7F" transform="translate(96,9)"/>
</svg>
